nColumns=28
nRows=33
DataType=double
version=3
OpenSimVersion=4.1
endheader
time	ground_force_1_vx	ground_force_1_vy	ground_force_1_vz	ground_force_1_px	ground_force_1_py	ground_force_1_pz	ground_force_1_mx	ground_force_1_my	ground_force_1_mz	ground_force_2_vx	ground_force_2_vy	ground_force_2_vz	ground_force_2_px	ground_force_2_py	ground_force_2_pz	ground_force_2_mx	ground_force_2_my	ground_force_2_mz	ground_force_3_vx	ground_force_3_vy	ground_force_3_vz	ground_force_3_px	ground_force_3_py	ground_force_3_pz	ground_force_3_mx	ground_force_3_my	ground_force_3_mz
1.51	-75.7833	109.149	-15.0798	-0.164834	0.006	-0.391135	0	0.5405	0	-33.9401	51.6613	6.41062	-0.136844	0.006	-0.734858	0	-0.362212	0	0	0	0	0	0	0	0	0	0
1.52	-351.04	554.616	-66.493	-0.170854	0.006	-0.393579	0	2.14229	0	-237.265	379.799	35.6705	-0.156827	0.006	-0.747865	0	-0.392396	0	0	0	0	0	0	0	0	0	0
1.53	-368.567	703.449	-87.1375	-0.177064	0.006	-0.394868	0	3.46659	0	-328.856	546.229	63.8012	-0.158924	0.006	-0.747695	0	-0.352812	0	0	0	0	0	0	0	0	0	0
1.54	-167.342	528.441	-72.9888	-0.19083	0.006	-0.395382	0	3.69252	0	-210.882	460.812	47.0308	-0.173497	0.006	-0.740466	0	-0.194181	0	0	0	0	0	0	0	0	0	0
1.55	-129.822	622.267	-66.9683	-0.232652	0.006	-0.405361	0	1.21531	0	-145.157	671.966	23.3293	-0.237771	0.006	-0.724935	0	2.15203	0	0	0	0	0	0	0	0	0	0
1.56	-30.7671	985.933	-40.3451	-0.284202	0.006	-0.419283	0	-1.542	0	16.881	1110.99	-0.193293	-0.28234	0.006	-0.716522	0	4.07882	0	0	0	0	0	0	0	0	0	0
1.57	-17.4244	1120.72	-41.0771	-0.295328	0.006	-0.423165	0	-3.4828	0	-4.86191	1016.45	31.4836	-0.281321	0.006	-0.71744	0	5.90784	0	0	0	0	0	0	0	0	0	0
1.58	-165.392	906.801	-59.6892	-0.272694	0.006	-0.419956	0	-3.12559	0	-191.758	689.049	61.8165	-0.247248	0.006	-0.72253	0	5.33022	0	0	0	0	0	0	0	0	0	0
1.59	-213.995	701.969	-65.3358	-0.244759	0.006	-0.414811	0	-2.55657	0	-262.926	530.318	71.036	-0.2143	0.006	-0.727322	0	5.08697	0	0	0	0	0	0	0	0	0	0
1.6	-163.726	609.183	-63.0732	-0.232778	0.006	-0.411731	0	-2.46188	0	-215.777	475.987	58.3713	-0.206388	0.006	-0.727035	0	6.12109	0	0	0	0	0	0	0	0	0	0
1.61	-139.575	580.914	-56.2132	-0.227819	0.006	-0.411256	0	-2.80797	0	-165.904	451.463	49.5044	-0.205264	0.006	-0.726074	0	6.99269	0	0	0	0	0	0	0	0	0	0
1.62	-153.261	560.618	-52.1898	-0.221111	0.006	-0.411189	0	-2.98683	0	-158.872	451.761	52.826	-0.203595	0.006	-0.725895	0	7.0771	0	0	0	0	0	0	0	0	0	0
1.63	-158.276	542.28	-50.8591	-0.215761	0.006	-0.411079	0	-2.88688	0	-163.859	473.75	53.3587	-0.203761	0.006	-0.725188	0	7.1764	0	0	0	0	0	0	0	0	0	0
1.64	-134.753	539.422	-48.1795	-0.216374	0.006	-0.411808	0	-3.10853	0	-146.605	498.916	50.3055	-0.207671	0.006	-0.723912	0	7.39837	0	0	0	0	0	0	0	0	0	0
1.65	-101.553	565.089	-41.9946	-0.223508	0.006	-0.414081	0	-3.77242	0	-112.217	520.973	47.0392	-0.214337	0.006	-0.722565	0	7.43269	0	0	0	0	0	0	0	0	0	0
1.66	-71.077	601.683	-36.9538	-0.231847	0.006	-0.41606	0	-4.16604	0	-82.4154	520.029	44.5562	-0.218314	0.006	-0.721898	0	7.20599	0	0	0	0	0	0	0	0	0	0
1.67	-43.7508	626.71	-36.469	-0.237096	0.006	-0.416654	0	-3.87761	0	-76.422	482.122	44.8721	-0.214427	0.006	-0.722491	0	6.64565	0	0	0	0	0	0	0	0	0	0
1.68	-27.7364	622.44	-41.6386	-0.236958	0.006	-0.415855	0	-3.17397	0	-85.817	437.662	43.0121	-0.206545	0.006	-0.72338	0	6.62699	0	0	0	0	0	0	0	0	0	0
1.69	-27.3748	592.056	-46.18	-0.232441	0.006	-0.41442	0	-2.75126	0	-95.7375	411.738	39.7924	-0.200805	0.006	-0.723396	0	7.18729	0	0	0	0	0	0	0	0	0	0
1.7	-34.7032	548.238	-45.6525	-0.225909	0.006	-0.413102	0	-2.91919	0	-97.5813	402.961	36.4527	-0.198945	0.006	-0.722517	0	7.81939	0	0	0	0	0	0	0	0	0	0
1.71	-41.8641	498.722	-40.7251	-0.218623	0.006	-0.412163	0	-3.41488	0	-91.3565	404.196	31.7038	-0.200055	0.006	-0.721201	0	8.47171	0	0	0	0	0	0	0	0	0	0
1.72	-46.1597	458.373	-35.6259	-0.212379	0.006	-0.411295	0	-3.9495	0	-80.884	417.677	26.0249	-0.204308	0.006	-0.719446	0	9.23282	0	0	0	0	0	0	0	0	0	0
1.73	-49.0616	438.068	-34.4547	-0.208757	0.006	-0.410644	0	-4.32897	0	-66.2094	448.922	20.6484	-0.211871	0.006	-0.717202	0	9.94527	0	0	0	0	0	0	0	0	0	0
1.74	-49.8937	434.16	-34.9457	-0.207911	0.006	-0.410675	0	-4.89229	0	-49.3723	487.46	22.1292	-0.219416	0.006	-0.71604	0	9.73877	0	0	0	0	0	0	0	0	0	0
1.75	-47.1564	439.293	-33.2929	-0.20929	0.006	-0.411429	0	-5.87445	0	-35.7895	520.524	32.5684	-0.224154	0.006	-0.717224	0	8.642	0	0	0	0	0	0	0	0	0	0
1.76	-42.2214	450.903	-29.7711	-0.21232	0.006	-0.412846	0	-7.07047	0	-26.7112	543.655	43.3774	-0.226501	0.006	-0.719758	0	7.50093	0	0	0	0	0	0	0	0	0	0
1.77	-37.4095	468.161	-26.4025	-0.216397	0.006	-0.414645	0	-8.10399	0	-24.0133	551.621	50.207	-0.22637	0.006	-0.722495	0	6.71412	0	0	0	0	0	0	0	0	0	0
1.78	-31.9149	486.734	-24.906	-0.220713	0.006	-0.416205	0	-8.63895	0	-28.2145	547.334	52.139	-0.224259	0.006	-0.724895	0	6.39883	0	0	0	0	0	0	0	0	0	0
1.79	-26.338	499.751	-25.8475	-0.224392	0.006	-0.417143	0	-8.6703	0	-35.7402	540.215	50.6966	-0.221768	0.006	-0.726481	0	6.52138	0	0	0	0	0	0	0	0	0	0
1.8	-22.8671	507.729	-26.0828	-0.226783	0.006	-0.417652	0	-8.55571	0	-39.2353	539.554	48.9244	-0.220517	0.006	-0.727292	0	6.75498	0	0	0	0	0	0	0	0	0	0
1.81	-21.7116	515.783	-25.067	-0.227898	0.006	-0.418026	0	-8.29307	0	-36.4783	545.548	49.2654	-0.220645	0.006	-0.727701	0	6.81106	0	0	0	0	0	0	0	0	0	0
1.82	-20.4083	524.924	-25.24	-0.228329	0.006	-0.418146	0	-7.67875	0	-31.2545	553.349	51.6202	-0.221169	0.006	-0.72785	0	6.73438	0	0	0	0	0	0	0	0	0	0
1.83	-16.5669	537.793	-26.9652	-0.228504	0.006	-0.417807	0	-6.73059	0	-26.7784	559.429	53.432	-0.221374	0.006	-0.727724	0	6.78328	0	0	0	0	0	0	0	0	0	0
